# xmcd
#
# Track frame offsets:
# 225
# 17625
# 32100
# 42525
# 52050
# 63225
# 80625
# 94575
# 103050
# 113550
# 125475
# 137925
# 157350
# 166125
# 182625
# 198375
# 212850
# 229800
#
# Disc length: 3192 seconds
#
#
# Revision: 1
# Processed by: cddbd v1.5.2PL0 Copyright (c) Steve Scherf et al.
# Submitted via: KELLER's_Musik_Katalog 2006 
#
DISCID=050c7512
DTITLE=VARIOU ARTISTS - Country Christmas Party
DYEAR=2000
DGENRE=weihnachtsmusik - Country Music
TTITLE0=JOHNNY CASH - Hark!  The Herald Angels Sing
TTITLE1=JOHN DENVER - Rudolph, The Red Nosed Reindeer
TTITLE2=LONNIE DONEGAN - Virgin Mary
TTITLE3=CHARLEY PRIDE - Christmas In My Home Town
TTITLE4=EDDY ARNOLD - I Heard The Bells On Christmas Day
TTITLE5=RONNIE MILSAP - Holy Night
TTITLE6=THE NASHVILLE SESSION SINGERS - The Twelve Days Of Christmas
TTITLE7=GENE AUTRY - Frosty The Snowman
TTITLE8=BOBBY SHERMAN - I Saw Mommy Kissing Santa Claus
TTITLE9=MELANIE - Christmas Lullaby
TTITLE10=LIBERACE - The Little Drummer Boy
TTITLE11=GLEN CAMPBELL - Have Yourself A Merry Little Christmas
TTITLE12=PAT BOONE - Jingle Bells
TTITLE13=WILLIE NELSON - Pretty Paper
TTITLE14=CHRYSTAL GAYLE - What Child Is This
TTITLE15=LYNN ANDERSON - Joy To The World
TTITLE16=CHARLEY PRIDE - O Little Town of Bethlehem
TTITLE17=THE KINGSTON TRIO - Sing We Noel
EXTD=Label: Planet Song - High Plane\nBestellnummer: 7604\nFirma: WPME Picture and Music GmbH (Import]\nEVOE: 2000\n\n\n Für freedb bereitgestelt von:\n    KELLER'S Musik-Katalog 2007 2007
EXTT0=
EXTT1=
EXTT2=
EXTT3=
EXTT4=
EXTT5=
EXTT6=
EXTT7=
EXTT8=
EXTT9=
EXTT10=
EXTT11=
EXTT12=
EXTT13=
EXTT14=
EXTT15=
EXTT16=
EXTT17=
PLAYORDER=
